<svg id="Capa_1" data-name="Capa 1" xmlns="http://www.w3.org/2000/svg" viewBox="0 0 500 500"><defs><style>.cls-1{fill:#1d1d1b;}</style></defs><path class="cls-1" d="M403.0631,135.06q-10.6216,18.4614-21.2465,36.9207-27.5677,47.73-55.16,95.4453c-.2911.5038-.54,1.0321-.9688,1.8579h76.7557A27.316,27.316,0,0,1,399.86,284.74c-6.0078,11.96-15.0861,20.0525-28.698,22.2078a41.5629,41.5629,0,0,1-6.3515.55q-51.8372.1515-103.6745.2249c-.58.0011-1.1594-.0493-2.07-.0906L336.6146,173.53c-.9173-.0543-1.4855-.1173-2.0536-.1174q-80.0647-.0078-160.1295.0181c-23.1215.0328-43.5072,18.6588-46.4795,41.5643a48.5268,48.5268,0,0,0,41.8229,54.4354c10.0872,1.3812,19.4324-.9653,28.3784-5.4911,14.2077-7.1876,33.7136-3.7644,44.34,7.7436,2.1039,2.2784,2.1025,2.3774.1781,4.7063-13.7333,16.62-31.3576,26.5915-52.48,30.3857-43.9554,7.8957-87.29-20.1609-98.2573-63.6-1.2-4.7544-1.8588-9.6456-2.7686-14.4733V214.9979c.4564-2.8289.881-5.6633,1.3743-8.4858A85.6082,85.6082,0,0,1,161.294,136.335c3.0561-.4931,6.1337-.8535,9.2013-1.2752Z"/><path class="cls-1" d="M260.052,248.4521a22.2035,22.2035,0,1,1,.3643-44.4031,22.2038,22.2038,0,0,1-.3643,44.4031Z"/><path class="cls-1" d="M52.334,343.4863V350.48h8.8872a1.41,1.41,0,0,1,1.5659,1.53v.7285a1.4366,1.4366,0,0,1-1.5659,1.5664H52.334v6.5918H62.7871a1.41,1.41,0,0,1,1.53,1.5664v.9473a1.3822,1.3822,0,0,1-1.53,1.5293H49.0562a1.3822,1.3822,0,0,1-1.53-1.5293V340.9736a1.3829,1.3829,0,0,1,1.53-1.53H62.7871a1.3829,1.3829,0,0,1,1.53,1.53v.9473a1.4091,1.4091,0,0,1-1.53,1.5654Z"/><path class="cls-1" d="M67.5962,359.9863c-.4-.9472.1094-1.6386,1.0928-1.8574l1.2749-.3281c.9467-.2188,1.42.1455,1.93,1.0195a5.5413,5.5413,0,0,0,4.9537,2.5137c2.914,0,4.6987-1.3477,4.6987-3.2783,0-1.6026-1.2749-2.6953-3.2783-3.4239l-3.5327-1.2382c-3.9336-1.2745-6.3741-3.86-6.3741-6.9932,0-4.5527,3.9336-7.3574,8.6324-7.3574,3.97,0,6.811,1.8574,8.0854,4.7353a1.2942,1.2942,0,0,1-.9834,1.9307l-1.1655.3271a1.5209,1.5209,0,0,1-1.9668-.91,4.0581,4.0581,0,0,0-3.9336-2.04c-2.0762,0-3.897,1.0928-3.897,3.06,0,.9834.4,2.1856,2.95,3.1328l3.5693,1.3106c4.6255,1.4931,6.5562,4.2617,6.5923,7.2119,0,4.7715-3.9336,7.54-9.3242,7.54C72.2583,365.3408,68.9438,363.1914,67.5962,359.9863Z"/><path class="cls-1" d="M109.0835,340.9736v.9473a1.4091,1.4091,0,0,1-1.53,1.5654H101.07V363.41a1.3822,1.3822,0,0,1-1.53,1.5293H97.8286a1.3822,1.3822,0,0,1-1.53-1.5293V343.4863H89.8521a1.4091,1.4091,0,0,1-1.53-1.5654v-.9473a1.3829,1.3829,0,0,1,1.53-1.53h17.7016A1.3829,1.3829,0,0,1,109.0835,340.9736Z"/><path class="cls-1" d="M107.9194,363.1553l8.6324-22.4727a1.761,1.761,0,0,1,1.7846-1.2392h2.3672a1.7618,1.7618,0,0,1,1.7852,1.2392l8.7412,22.4727c.4009,1.0556-.0728,1.7842-1.2022,1.7842H128.28a1.7757,1.7757,0,0,1-1.8213-1.2383l-1.42-3.751H114.0386l-1.42,3.751A1.6909,1.6909,0,0,1,110.87,364.94h-1.748C107.9922,364.94,107.519,364.2109,107.9194,363.1553Zm15.99-7.03-4.3711-11.8369-4.3706,11.8369Z"/><path class="cls-1" d="M132.7622,352.1914c0-7.1025,5.2446-13.1484,13.877-13.1484a13.2185,13.2185,0,0,1,7.6489,2.2216,1.4124,1.4124,0,0,1,.3642,2.15l-.583.8379c-.5464.8369-1.2382.91-2.1489.4a10.9788,10.9788,0,0,0-5.2812-1.3837,8.9236,8.9236,0,1,0,0,17.8466,10.9778,10.9778,0,0,0,5.2812-1.3838c.9107-.51,1.6025-.4375,2.1489.4l.583.8379c.5464.8379.51,1.4932-.1821,2.003a13.16,13.16,0,0,1-7.831,2.3681C138.0068,365.3408,132.7622,359.2939,132.7622,352.1914Z"/><path class="cls-1" d="M159.4985,363.41V340.9736a1.3829,1.3829,0,0,1,1.53-1.53h1.7481a1.3829,1.3829,0,0,1,1.53,1.53V363.41a1.3822,1.3822,0,0,1-1.53,1.5293h-1.7481A1.3822,1.3822,0,0,1,159.4985,363.41Z"/><path class="cls-1" d="M168.9692,352.1914a13.3874,13.3874,0,1,1,13.4034,13.1494A13.1322,13.1322,0,0,1,168.9692,352.1914Zm21.89,0c0-5.0264-3.6787-8.9228-8.4868-8.9228a8.9327,8.9327,0,0,0,0,17.8466C187.1807,361.1152,190.8594,357.2178,190.8594,352.1914Zm-10.1621-15.9893,1.93-3.5332a1.0339,1.0339,0,0,1,1.02-.6191h2.7319c.6919,0,.9468.4736.51,1.0195l-2.7681,3.6426a1.2753,1.2753,0,0,1-1.02.51h-1.7847C180.6606,337.2217,180.4058,336.7852,180.6973,336.2021Z"/><path class="cls-1" d="M200.3677,363.41V340.9736a1.3829,1.3829,0,0,1,1.53-1.53h.9467a2.1781,2.1781,0,0,1,1.8941.9472l11.6553,15.8438V340.9736a1.3828,1.3828,0,0,1,1.53-1.53h1.7481a1.41,1.41,0,0,1,1.5664,1.53V363.41a1.4094,1.4094,0,0,1-1.5664,1.5293h-.91a2.2194,2.2194,0,0,1-1.894-.9463L205.1753,348.04v15.37a1.3822,1.3822,0,0,1-1.53,1.5293h-1.748A1.3822,1.3822,0,0,1,200.3677,363.41Z"/><path class="cls-1" d="M236.7568,363.41V340.9736a1.3829,1.3829,0,0,1,1.53-1.53h7.7212c7.94,0,13.0762,5.7187,13.0762,12.748S253.9482,364.94,246.0078,364.94h-7.7212A1.3822,1.3822,0,0,1,236.7568,363.41Zm8.96-2.5137c5.2446,0,8.4863-3.7881,8.4863-8.7051s-3.2417-8.7412-8.4863-8.7051h-4.1523v17.41Z"/><path class="cls-1" d="M268.5562,343.4863V350.48h8.8872a1.41,1.41,0,0,1,1.5659,1.53v.7285a1.4366,1.4366,0,0,1-1.5659,1.5664h-8.8872v6.5918h10.4531a1.41,1.41,0,0,1,1.53,1.5664v.9473a1.3822,1.3822,0,0,1-1.53,1.5293h-13.731a1.3822,1.3822,0,0,1-1.53-1.5293V340.9736a1.3829,1.3829,0,0,1,1.53-1.53h13.731a1.3829,1.3829,0,0,1,1.53,1.53v.9473a1.4091,1.4091,0,0,1-1.53,1.5654Z"/><path class="cls-1" d="M314.2686,357.9463c0,4.2256-3.5328,6.9932-8.8145,6.9932h-9.251a1.3822,1.3822,0,0,1-1.53-1.5293V340.9736a1.3829,1.3829,0,0,1,1.53-1.53h8.1221c5.063,0,8.7417,2.55,8.7417,6.7754a5.6441,5.6441,0,0,1-4.4439,5.5722A6.1026,6.1026,0,0,1,314.2686,357.9463ZM299.481,343.3047v7.1387h3.4965c3.7881,0,5.2813-1.8575,5.2813-3.751,0-2.1856-1.8574-3.3877-4.1524-3.3877Zm9.98,14.3506c0-1.9668-1.6757-3.8975-5.6455-3.8975H299.481v7.2481h5.8642C307.8218,361.0059,309.4609,359.6221,309.4609,357.6553Z"/><path class="cls-1" d="M323.6675,343.4863V350.48h8.8872a1.41,1.41,0,0,1,1.5659,1.53v.7285a1.4366,1.4366,0,0,1-1.5659,1.5664h-8.8872v6.5918h10.4531a1.41,1.41,0,0,1,1.53,1.5664v.9473a1.3822,1.3822,0,0,1-1.53,1.5293H320.39a1.3822,1.3822,0,0,1-1.53-1.5293V340.9736a1.3828,1.3828,0,0,1,1.53-1.53h13.731a1.3829,1.3829,0,0,1,1.53,1.53v.9473a1.4091,1.4091,0,0,1-1.53,1.5654Z"/><path class="cls-1" d="M340.6055,363.41V340.9736a1.3829,1.3829,0,0,1,1.53-1.53h1.748a1.3829,1.3829,0,0,1,1.53,1.53v19.9229h10.0527a1.4366,1.4366,0,0,1,1.5659,1.5664v.9473a1.4091,1.4091,0,0,1-1.5659,1.5293H342.1353A1.3822,1.3822,0,0,1,340.6055,363.41Z"/><path class="cls-1" d="M360.7847,363.41V340.9736a1.3829,1.3829,0,0,1,1.53-1.53h1.748a1.3829,1.3829,0,0,1,1.53,1.53v19.9229H375.645a1.4366,1.4366,0,0,1,1.5659,1.5664v.9473a1.4091,1.4091,0,0,1-1.5659,1.5293h-13.33A1.3822,1.3822,0,0,1,360.7847,363.41Z"/><path class="cls-1" d="M385.772,343.4863V350.48h8.8872a1.41,1.41,0,0,1,1.5659,1.53v.7285a1.4366,1.4366,0,0,1-1.5659,1.5664H385.772v6.5918h10.4531a1.41,1.41,0,0,1,1.53,1.5664v.9473a1.3822,1.3822,0,0,1-1.53,1.5293h-13.731a1.3822,1.3822,0,0,1-1.53-1.5293V340.9736a1.3828,1.3828,0,0,1,1.53-1.53h13.731a1.3829,1.3829,0,0,1,1.53,1.53v.9473a1.4091,1.4091,0,0,1-1.53,1.5654Z"/><path class="cls-1" d="M400.5244,363.41v-.6924a2.6033,2.6033,0,0,1,.6919-1.8936l13.8042-17.3379H403.0742a1.4091,1.4091,0,0,1-1.53-1.5654v-.9473a1.3829,1.3829,0,0,1,1.53-1.53H419.938a1.3825,1.3825,0,0,1,1.5293,1.53v.6924a2.6764,2.6764,0,0,1-.6553,1.8936l-13.9863,17.3369H420.812a1.41,1.41,0,0,1,1.53,1.5664v.9473a1.3822,1.3822,0,0,1-1.53,1.5293H402.0542A1.3822,1.3822,0,0,1,400.5244,363.41Z"/><path class="cls-1" d="M424.4194,363.1553l8.6324-22.4727a1.761,1.761,0,0,1,1.7846-1.2392h2.3672a1.7618,1.7618,0,0,1,1.7852,1.2392l8.7412,22.4727c.4009,1.0556-.0728,1.7842-1.2022,1.7842H444.78a1.7757,1.7757,0,0,1-1.8213-1.2383l-1.42-3.751h-11l-1.42,3.751A1.6909,1.6909,0,0,1,427.37,364.94h-1.748C424.4922,364.94,424.019,364.2109,424.4194,363.1553Zm15.99-7.03-4.3711-11.8369-4.3706,11.8369Z"/></svg>