<svg id="Capa_1" data-name="Capa 1" xmlns="http://www.w3.org/2000/svg" viewBox="0 0 500 500"><defs><style>.cls-1{fill:#f7cbc9;}</style></defs><path class="cls-1" d="M403.0631,118.0079q-10.6216,18.4613-21.2465,36.9207-27.5677,47.73-55.16,95.4453c-.2911.5037-.54,1.032-.9688,1.8579h76.7557a27.3157,27.3157,0,0,1-2.5837,15.4565c-6.0078,11.96-15.0861,20.0526-28.698,22.2079a41.5754,41.5754,0,0,1-6.3515.55q-51.8372.1515-103.6745.2249c-.58.0011-1.1594-.0492-2.07-.09,25.8945-44.779,51.6371-89.2952,77.548-134.1027-.9173-.0543-1.4855-.1173-2.0536-.1174q-80.0647-.0077-160.1295.0181c-23.1215.0328-43.5072,18.6588-46.4795,41.5643a48.527,48.527,0,0,0,41.8229,54.4355c10.0872,1.3811,19.4324-.9653,28.3784-5.4912,14.2077-7.1876,33.7136-3.7643,44.34,7.7436,2.1039,2.2784,2.1025,2.3775.1781,4.7064-13.7333,16.62-31.3576,26.5914-52.48,30.3857-43.9554,7.8957-87.29-20.161-98.2573-63.6-1.2-4.7544-1.8588-9.6456-2.7686-14.4734V197.946c.4564-2.8289.881-5.6634,1.3743-8.4858a85.6082,85.6082,0,0,1,70.7546-70.1771c3.0561-.4931,6.1337-.8535,9.2013-1.2752Z"/><path class="cls-1" d="M260.052,231.4a22.2036,22.2036,0,1,1,.3643-44.4032A22.2039,22.2039,0,0,1,260.052,231.4Z"/><path class="cls-1" d="M52.334,326.4346v6.9931h8.8872a1.4094,1.4094,0,0,1,1.5659,1.53v.7285a1.4366,1.4366,0,0,1-1.5659,1.5664H52.334v6.5923H62.7871a1.41,1.41,0,0,1,1.53,1.5664v.9468a1.3826,1.3826,0,0,1-1.53,1.53H49.0562a1.3826,1.3826,0,0,1-1.53-1.53V323.9214a1.3826,1.3826,0,0,1,1.53-1.53H62.7871a1.3826,1.3826,0,0,1,1.53,1.53v.9473a1.4094,1.4094,0,0,1-1.53,1.5659Z"/><path class="cls-1" d="M67.5962,342.9341c-.4-.9468.1094-1.6387,1.0928-1.8574l1.2749-.3277c.9467-.2187,1.42.1455,1.93,1.02a5.5409,5.5409,0,0,0,4.9537,2.5131c2.914,0,4.6987-1.3476,4.6987-3.2778,0-1.6025-1.2749-2.6953-3.2783-3.4238l-3.5327-1.2383c-3.9336-1.2749-6.3741-3.8608-6.3741-6.9932,0-4.5527,3.9336-7.3574,8.6324-7.3574,3.97,0,6.811,1.8574,8.0854,4.7349a1.2939,1.2939,0,0,1-.9834,1.9306l-1.1655.3277a1.5216,1.5216,0,0,1-1.9668-.9107,4.0587,4.0587,0,0,0-3.9336-2.0395c-2.0762,0-3.897,1.0928-3.897,3.06,0,.9833.4,2.185,2.95,3.1323l3.5693,1.311c4.6255,1.4932,6.5562,4.2617,6.5923,7.2119,0,4.771-3.9336,7.54-9.3242,7.54C72.2583,348.2886,68.9438,346.1392,67.5962,342.9341Z"/><path class="cls-1" d="M109.0835,323.9214v.9473a1.4094,1.4094,0,0,1-1.53,1.5659H101.07v19.9233a1.3826,1.3826,0,0,1-1.53,1.53H97.8286a1.3826,1.3826,0,0,1-1.53-1.53V326.4346H89.8521a1.4094,1.4094,0,0,1-1.53-1.5659v-.9473a1.3826,1.3826,0,0,1,1.53-1.53h17.7016A1.3826,1.3826,0,0,1,109.0835,323.9214Z"/><path class="cls-1" d="M107.9194,346.103l8.6324-22.4726a1.7607,1.7607,0,0,1,1.7846-1.2388h2.3672a1.7614,1.7614,0,0,1,1.7852,1.2388L131.23,346.103c.4009,1.0562-.0728,1.7847-1.2022,1.7847H128.28a1.7763,1.7763,0,0,1-1.8213-1.2383l-1.42-3.7515H114.0386l-1.42,3.7515a1.6914,1.6914,0,0,1-1.7486,1.2383h-1.748C107.9922,347.8877,107.519,347.1592,107.9194,346.103Zm15.99-7.03-4.3711-11.8374-4.3706,11.8374Z"/><path class="cls-1" d="M132.7622,335.14c0-7.1025,5.2446-13.1484,13.877-13.1484a13.2178,13.2178,0,0,1,7.6489,2.2217,1.4118,1.4118,0,0,1,.3642,2.1489l-.583.8379c-.5464.8374-1.2382.9107-2.1489.4a10.9789,10.9789,0,0,0-5.2812-1.3838,8.9239,8.9239,0,1,0,0,17.8472,10.9794,10.9794,0,0,0,5.2812-1.3843c.9107-.51,1.6025-.437,2.1489.4009l.583.8374c.5464.8379.51,1.4936-.1821,2.0034a13.1634,13.1634,0,0,1-7.831,2.3677C138.0068,348.2886,132.7622,342.2422,132.7622,335.14Z"/><path class="cls-1" d="M159.4985,346.3579V323.9214a1.3826,1.3826,0,0,1,1.53-1.53h1.7481a1.3826,1.3826,0,0,1,1.53,1.53v22.4365a1.3826,1.3826,0,0,1-1.53,1.53h-1.7481A1.3826,1.3826,0,0,1,159.4985,346.3579Z"/><path class="cls-1" d="M168.9692,335.14a13.3874,13.3874,0,1,1,13.4034,13.149A13.1318,13.1318,0,0,1,168.9692,335.14Zm21.89,0c0-5.0263-3.6787-8.9233-8.4868-8.9233a8.933,8.933,0,0,0,0,17.8472C187.1807,344.0635,190.8594,340.166,190.8594,335.14ZM180.6973,319.15l1.93-3.5332a1.0332,1.0332,0,0,1,1.02-.6192h2.7319c.6919,0,.9468.4737.51,1.02l-2.7681,3.6426a1.2766,1.2766,0,0,1-1.02.51h-1.7847C180.6606,320.17,180.4058,319.7329,180.6973,319.15Z"/><path class="cls-1" d="M200.3677,346.3579V323.9214a1.3826,1.3826,0,0,1,1.53-1.53h.9467a2.1768,2.1768,0,0,1,1.8941.9473l11.6553,15.8437V323.9214a1.3825,1.3825,0,0,1,1.53-1.53h1.7481a1.41,1.41,0,0,1,1.5664,1.53v22.4365a1.41,1.41,0,0,1-1.5664,1.53h-.91a2.22,2.22,0,0,1-1.894-.9468l-11.6919-15.9531v15.37a1.3826,1.3826,0,0,1-1.53,1.53h-1.748A1.3826,1.3826,0,0,1,200.3677,346.3579Z"/><path class="cls-1" d="M236.7568,346.3579V323.9214a1.3826,1.3826,0,0,1,1.53-1.53h7.7212c7.94,0,13.0762,5.7188,13.0762,12.748s-5.1358,12.7481-13.0762,12.7481h-7.7212A1.3826,1.3826,0,0,1,236.7568,346.3579Zm8.96-2.5132c5.2446,0,8.4863-3.7881,8.4863-8.7051s-3.2417-8.7412-8.4863-8.705h-4.1523v17.41Z"/><path class="cls-1" d="M268.5562,326.4346v6.9931h8.8872a1.4094,1.4094,0,0,1,1.5659,1.53v.7285a1.4366,1.4366,0,0,1-1.5659,1.5664h-8.8872v6.5923h10.4531a1.41,1.41,0,0,1,1.53,1.5664v.9468a1.3826,1.3826,0,0,1-1.53,1.53h-13.731a1.3826,1.3826,0,0,1-1.53-1.53V323.9214a1.3826,1.3826,0,0,1,1.53-1.53h13.731a1.3826,1.3826,0,0,1,1.53,1.53v.9473a1.4094,1.4094,0,0,1-1.53,1.5659Z"/><path class="cls-1" d="M314.2686,340.8945c0,4.2251-3.5328,6.9932-8.8145,6.9932h-9.251a1.3826,1.3826,0,0,1-1.53-1.53V323.9214a1.3826,1.3826,0,0,1,1.53-1.53h8.1221c5.063,0,8.7417,2.55,8.7417,6.7749a5.6451,5.6451,0,0,1-4.4439,5.5728A6.1019,6.1019,0,0,1,314.2686,340.8945ZM299.481,326.2524v7.1392h3.4965c3.7881,0,5.2813-1.8579,5.2813-3.7515,0-2.1855-1.8574-3.3877-4.1524-3.3877Zm9.98,14.3506c0-1.9668-1.6757-3.8969-5.6455-3.8969H299.481v7.248h5.8642C307.8218,343.9541,309.4609,342.57,309.4609,340.603Z"/><path class="cls-1" d="M323.6675,326.4346v6.9931h8.8872a1.4094,1.4094,0,0,1,1.5659,1.53v.7285a1.4366,1.4366,0,0,1-1.5659,1.5664h-8.8872v6.5923h10.4531a1.41,1.41,0,0,1,1.53,1.5664v.9468a1.3826,1.3826,0,0,1-1.53,1.53H320.39a1.3825,1.3825,0,0,1-1.53-1.53V323.9214a1.3825,1.3825,0,0,1,1.53-1.53h13.731a1.3826,1.3826,0,0,1,1.53,1.53v.9473a1.4094,1.4094,0,0,1-1.53,1.5659Z"/><path class="cls-1" d="M340.6055,346.3579V323.9214a1.3826,1.3826,0,0,1,1.53-1.53h1.748a1.3826,1.3826,0,0,1,1.53,1.53v19.9233h10.0527a1.4366,1.4366,0,0,1,1.5659,1.5664v.9468a1.4094,1.4094,0,0,1-1.5659,1.53H342.1353A1.3826,1.3826,0,0,1,340.6055,346.3579Z"/><path class="cls-1" d="M360.7847,346.3579V323.9214a1.3826,1.3826,0,0,1,1.53-1.53h1.748a1.3826,1.3826,0,0,1,1.53,1.53v19.9233H375.645a1.4366,1.4366,0,0,1,1.5659,1.5664v.9468a1.4094,1.4094,0,0,1-1.5659,1.53h-13.33A1.3826,1.3826,0,0,1,360.7847,346.3579Z"/><path class="cls-1" d="M385.772,326.4346v6.9931h8.8872a1.4094,1.4094,0,0,1,1.5659,1.53v.7285a1.4366,1.4366,0,0,1-1.5659,1.5664H385.772v6.5923h10.4531a1.41,1.41,0,0,1,1.53,1.5664v.9468a1.3826,1.3826,0,0,1-1.53,1.53h-13.731a1.3825,1.3825,0,0,1-1.53-1.53V323.9214a1.3825,1.3825,0,0,1,1.53-1.53h13.731a1.3826,1.3826,0,0,1,1.53,1.53v.9473a1.4094,1.4094,0,0,1-1.53,1.5659Z"/><path class="cls-1" d="M400.5244,346.3579v-.6919a2.6044,2.6044,0,0,1,.6919-1.894l13.8042-17.3374H403.0742a1.4094,1.4094,0,0,1-1.53-1.5659v-.9473a1.3826,1.3826,0,0,1,1.53-1.53H419.938a1.3822,1.3822,0,0,1,1.5293,1.53v.6924a2.6764,2.6764,0,0,1-.6553,1.8935l-13.9863,17.3374H420.812a1.41,1.41,0,0,1,1.53,1.5664v.9468a1.3826,1.3826,0,0,1-1.53,1.53H402.0542A1.3826,1.3826,0,0,1,400.5244,346.3579Z"/><path class="cls-1" d="M424.4194,346.103l8.6324-22.4726a1.7607,1.7607,0,0,1,1.7846-1.2388h2.3672a1.7614,1.7614,0,0,1,1.7852,1.2388L447.73,346.103c.4009,1.0562-.0728,1.7847-1.2022,1.7847H444.78a1.7763,1.7763,0,0,1-1.8213-1.2383l-1.42-3.7515h-11l-1.42,3.7515a1.6914,1.6914,0,0,1-1.7486,1.2383h-1.748C424.4922,347.8877,424.019,347.1592,424.4194,346.103Zm15.99-7.03-4.3711-11.8374-4.3706,11.8374Z"/></svg>