<svg id="Capa_1" data-name="Capa 1" xmlns="http://www.w3.org/2000/svg" viewBox="0 0 500 500"><defs><style>.cls-1{fill:#f7cbc9;}</style></defs><path class="cls-1" d="M45.9268,245.0166c0-12.2173,9.0224-22.6177,23.8711-22.6177a22.7344,22.7344,0,0,1,13.1572,3.8218,2.4282,2.4282,0,0,1,.626,3.6963l-1.002,1.4414c-.94,1.4409-2.1309,1.5659-3.6973.689a18.8761,18.8761,0,0,0-9.0839-2.3809c-9.711,0-15.4756,7.0171-15.4756,15.35s5.7646,15.35,15.4756,15.35a18.876,18.876,0,0,0,9.0839-2.3808c1.5664-.877,2.7569-.7515,3.6973.6894l1.002,1.4409c.94,1.4409.8769,2.5689-.3135,3.4458a22.6409,22.6409,0,0,1-13.47,4.0723C54.9492,267.6338,45.9268,257.2339,45.9268,245.0166Z"/><path class="cls-1" d="M87.9072,263.875l14.8487-38.6567a3.0294,3.0294,0,0,1,3.07-2.13h4.0722a3.03,3.03,0,0,1,3.07,2.13l15.0361,38.6567c.6894,1.8169-.125,3.07-2.0674,3.07h-3.0068a3.0538,3.0538,0,0,1-3.1328-2.13l-2.4434-6.4532H98.4326l-2.4433,6.4532a2.9071,2.9071,0,0,1-3.0069,2.13H89.9746C88.0332,266.9448,87.2188,265.6919,87.9072,263.875Zm27.5049-12.0923-7.5185-20.3618-7.5186,20.3618Z"/><path class="cls-1" d="M150.5635,250.9058h-7.2676v13.4077a2.3782,2.3782,0,0,1-2.6318,2.6313h-3.0069a2.3786,2.3786,0,0,1-2.6318-2.6313V225.7192a2.3786,2.3786,0,0,1,2.6318-2.6313h16.54c8.96,0,13.9716,6.5161,13.9716,14.2222,0,6.5161-3.6337,11.7163-9.9619,13.1572.4385,4.6362,3.1328,10.4,7.3936,10.4a6.1187,6.1187,0,0,0,3.0068-.6265c1.5664-.6269,2.4434-.376,3.1953,1.1275l.4385.8774c.69,1.5034.5645,2.7563-.8144,3.5708a13.0375,13.0375,0,0,1-6.8916,1.8169C153.8838,267.6338,151.002,255.9805,150.5635,250.9058Zm2.3183-6.2652c4.1973,0,6.8291-3.07,6.8291-7.2676,0-4.2607-2.6943-7.3305-6.8291-7.3305h-9.5859v14.5981Z"/><path class="cls-1" d="M190.6016,264.3135v-1.19a4.4806,4.4806,0,0,1,1.19-3.2578l23.7451-29.8227h-20.55a2.4244,2.4244,0,0,1-2.6309-2.6939v-1.6294a2.3779,2.3779,0,0,1,2.6309-2.6313h29.0088a2.3779,2.3779,0,0,1,2.6309,2.6313v1.19a4.6054,4.6054,0,0,1-1.128,3.2583L201.44,259.99H225.499a2.4253,2.4253,0,0,1,2.6319,2.6944v1.6289a2.3786,2.3786,0,0,1-2.6319,2.6313H193.2334A2.3786,2.3786,0,0,1,190.6016,264.3135Z"/><path class="cls-1" d="M235.4639,264.3135V225.7192a2.3778,2.3778,0,0,1,2.6308-2.6313h3.0078a2.3779,2.3779,0,0,1,2.6309,2.6313v38.5943a2.3779,2.3779,0,0,1-2.6309,2.6313h-3.0078A2.3778,2.3778,0,0,1,235.4639,264.3135Z"/><path class="cls-1" d="M254.6992,264.3135V225.7192a2.3779,2.3779,0,0,1,2.6309-2.6313h1.6289a3.7439,3.7439,0,0,1,3.2578,1.6289l20.0488,27.2539V225.7192a2.3786,2.3786,0,0,1,2.6319-2.6313h3.0068a2.4246,2.4246,0,0,1,2.6943,2.6313v38.5943a2.4246,2.4246,0,0,1-2.6943,2.6313h-1.5664a3.82,3.82,0,0,1-3.2578-1.6289L262.9688,237.874v26.4395a2.3779,2.3779,0,0,1-2.6309,2.6313H257.33A2.3779,2.3779,0,0,1,254.6992,264.3135Z"/><path class="cls-1" d="M298.56,245.0791c0-12.5308,10.0244-22.68,23.2441-22.68a25.5931,25.5931,0,0,1,13.7207,3.5083c1.4414.94,1.63,2.1929.752,3.6968l-1.128,1.5034c-.8769,1.4409-2.0673,1.6289-3.6338.8775a18.0907,18.0907,0,0,0-9.7109-2.3184c-8.3955,0-14.8486,6.8291-14.8486,15.4126,0,7.8315,5.3252,15.2871,15.4756,15.2871a17.5324,17.5324,0,0,0,8.8339-2.3179v-7.7065h-8.7714a2.4251,2.4251,0,0,1-2.6319-2.6939v-1.0654a2.3786,2.3786,0,0,1,2.6319-2.6313h13.8457a2.3782,2.3782,0,0,1,2.6318,2.6313v12.6563a4.1362,4.1362,0,0,1-1.9424,3.5708,24.584,24.584,0,0,1-14.8486,4.8242C308.2705,267.6338,298.56,257.4219,298.56,245.0791Z"/><path class="cls-1" d="M342.7334,263.875l14.8486-38.6567a3.03,3.03,0,0,1,3.07-2.13h4.0723a3.0294,3.0294,0,0,1,3.07,2.13l15.0362,38.6567c.6894,1.8169-.125,3.07-2.0674,3.07h-3.0069a3.0539,3.0539,0,0,1-3.1328-2.13l-2.4433-6.4532H353.2588l-2.4434,6.4532a2.9069,2.9069,0,0,1-3.0068,2.13h-3.0078C342.8594,266.9448,342.0449,265.6919,342.7334,263.875Zm27.5049-12.0923L362.72,231.4209l-7.5185,20.3618Z"/><path class="cls-1" d="M389.9141,264.3135V225.7192a2.3778,2.3778,0,0,1,2.6308-2.6313h3.0078a2.3779,2.3779,0,0,1,2.6309,2.6313V259.99h17.292a2.4711,2.4711,0,0,1,2.6943,2.6944v1.6289a2.4246,2.4246,0,0,1-2.6943,2.6313H392.5449A2.3778,2.3778,0,0,1,389.9141,264.3135Z"/><path class="cls-1" d="M432.8945,230.0425v12.0293h15.2871a2.4246,2.4246,0,0,1,2.6944,2.6313v1.253a2.4711,2.4711,0,0,1-2.6944,2.6943H432.8945v11.34H450.876a2.4252,2.4252,0,0,1,2.6318,2.6944v1.6289a2.3786,2.3786,0,0,1-2.6318,2.6313h-23.62a2.3779,2.3779,0,0,1-2.6309-2.6313V225.7192a2.3779,2.3779,0,0,1,2.6309-2.6313h23.62a2.3786,2.3786,0,0,1,2.6318,2.6313v1.6294a2.4251,2.4251,0,0,1-2.6318,2.6939Z"/><path class="cls-1" d="M51.7324,287.8071v5.9649h7.58a1.2022,1.2022,0,0,1,1.3359,1.3047v.6215a1.2254,1.2254,0,0,1-1.3359,1.336h-7.58v5.623h8.916a1.2022,1.2022,0,0,1,1.3047,1.336v.8076a1.179,1.179,0,0,1-1.3047,1.3047H48.9365a1.1791,1.1791,0,0,1-1.3047-1.3047V285.6636a1.1794,1.1794,0,0,1,1.3047-1.3052H60.6484a1.1794,1.1794,0,0,1,1.3047,1.3052v.8076a1.2022,1.2022,0,0,1-1.3047,1.3359Z"/><path class="cls-1" d="M67.8555,301.88c-.3418-.8076.0937-1.398.9326-1.5845l1.0869-.2793c.8076-.1865,1.2119.124,1.6465.87a4.727,4.727,0,0,0,4.2256,2.1436c2.4853,0,4.0068-1.1494,4.0068-2.7959,0-1.3672-1.0869-2.2988-2.7959-2.92l-3.0127-1.0562c-3.3555-1.0874-5.4375-3.2929-5.4375-5.9648,0-3.8833,3.3555-6.2754,7.3633-6.2754,3.3867,0,5.81,1.5845,6.8965,4.0386a1.1033,1.1033,0,0,1-.8389,1.6464l-.9941.28a1.2973,1.2973,0,0,1-1.6768-.7768,3.4634,3.4634,0,0,0-3.3555-1.74c-1.7714,0-3.3242.9322-3.3242,2.61,0,.8384.3418,1.8638,2.5166,2.6714l3.044,1.1186c3.9453,1.2735,5.5918,3.6348,5.623,6.1514,0,4.0693-3.3545,6.4307-7.9531,6.4307C71.832,306.4473,69.0049,304.6143,67.8555,301.88Z"/><path class="cls-1" d="M106.3486,285.6636v.8076a1.2029,1.2029,0,0,1-1.3056,1.3359H99.5137v16.9937a1.179,1.179,0,0,1-1.3047,1.3047H96.748a1.1794,1.1794,0,0,1-1.3046-1.3047V287.8071H89.9453a1.2029,1.2029,0,0,1-1.3057-1.3359v-.8076a1.18,1.18,0,0,1,1.3057-1.3052H105.043A1.18,1.18,0,0,1,106.3486,285.6636Z"/><path class="cls-1" d="M108.4609,304.583l7.3633-19.168a1.501,1.501,0,0,1,1.5215-1.0566h2.02a1.5014,1.5014,0,0,1,1.5225,1.0566l7.4561,19.168c.3417.9014-.0626,1.5225-1.0254,1.5225h-1.4913a1.5159,1.5159,0,0,1-1.5537-1.0562l-1.2109-3.2H113.68l-1.2109,3.2a1.443,1.443,0,0,1-1.4913,1.0562h-1.4912C108.5234,306.1055,108.1191,305.4844,108.4609,304.583ZM122.1,298.5874l-3.7285-10.0967-3.7275,10.0967Z"/><path class="cls-1" d="M132.7559,295.2319c0-6.0581,4.4746-11.2148,11.8369-11.2148a11.2771,11.2771,0,0,1,6.5244,1.895,1.2042,1.2042,0,0,1,.31,1.833l-.497.7144c-.4659.7143-1.0567.7768-1.833.3418a9.3633,9.3633,0,0,0-4.5049-1.1807,7.6116,7.6116,0,1,0,0,15.2227,9.3628,9.3628,0,0,0,4.5049-1.18c.7763-.4351,1.3671-.3731,1.833.3418l.497.7143c.4659.7144.4346,1.274-.1552,1.7085a11.227,11.227,0,0,1-6.68,2.02C137.2305,306.4473,132.7559,301.29,132.7559,295.2319Z"/><path class="cls-1" d="M158.667,304.8008V285.6636a1.1794,1.1794,0,0,1,1.3047-1.3052h1.4912a1.1794,1.1794,0,0,1,1.3047,1.3052v19.1372a1.179,1.179,0,0,1-1.3047,1.3047h-1.4912A1.179,1.179,0,0,1,158.667,304.8008Z"/><path class="cls-1" d="M169.8516,295.2319a11.4188,11.4188,0,1,1,11.4316,11.2154A11.2,11.2,0,0,1,169.8516,295.2319Zm18.6709,0a7.2628,7.2628,0,1,0-7.2393,7.6114A7.3154,7.3154,0,0,0,188.5225,295.2319Zm-8.668-13.6381,1.6465-3.0137a.881.881,0,0,1,.87-.5279h2.33c.59,0,.8076.4039.4345.87l-2.36,3.1069a1.09,1.09,0,0,1-.87.4346h-1.5225C179.8232,282.4634,179.6064,282.0908,179.8545,281.5938Z"/><path class="cls-1" d="M199.7383,304.8008V285.6636a1.1794,1.1794,0,0,1,1.3047-1.3052h.8076a1.8558,1.8558,0,0,1,1.6152.8081l9.9414,13.5142V285.6636a1.1794,1.1794,0,0,1,1.3047-1.3052h1.4912a1.2026,1.2026,0,0,1,1.336,1.3052v19.1372a1.2023,1.2023,0,0,1-1.336,1.3047h-.7763a1.8927,1.8927,0,0,1-1.6153-.8076L203.8389,291.69v13.11a1.1791,1.1791,0,0,1-1.3047,1.3047H201.043A1.179,1.179,0,0,1,199.7383,304.8008Z"/><path class="cls-1" d="M241.6748,304.8008V285.6636a1.1794,1.1794,0,0,1,1.3047-1.3052h6.5859c6.7725,0,11.1534,4.8779,11.1534,10.8735s-4.3809,10.8736-11.1534,10.8736H242.98A1.179,1.179,0,0,1,241.6748,304.8008Zm7.6426-2.1436c4.4736,0,7.2383-3.2309,7.2383-7.4253s-2.7647-7.456-7.2383-7.4248h-3.542v14.85Z"/><path class="cls-1" d="M271.9033,287.8071v5.9649h7.58a1.2022,1.2022,0,0,1,1.3359,1.3047v.6215a1.2254,1.2254,0,0,1-1.3359,1.336h-7.58v5.623h8.916a1.2022,1.2022,0,0,1,1.3047,1.336v.8076a1.179,1.179,0,0,1-1.3047,1.3047H269.1074a1.1791,1.1791,0,0,1-1.3047-1.3047V285.6636a1.1794,1.1794,0,0,1,1.3047-1.3052h11.7119a1.1794,1.1794,0,0,1,1.3047,1.3052v.8076a1.2022,1.2022,0,0,1-1.3047,1.3359Z"/><path class="cls-1" d="M321.793,300.1406c0,3.6035-3.0137,5.9649-7.5186,5.9649h-7.8906a1.179,1.179,0,0,1-1.3047-1.3047V285.6636a1.1794,1.1794,0,0,1,1.3047-1.3052h6.9277c4.3184,0,7.4561,2.1748,7.4561,5.7788a4.8138,4.8138,0,0,1-3.79,4.7529A5.2051,5.2051,0,0,1,321.793,300.1406ZM309.18,287.6519v6.0888h2.9824c3.2305,0,4.5049-1.5845,4.5049-3.2,0-1.8642-1.585-2.8891-3.542-2.8891Zm8.5127,12.24c0-1.6777-1.43-3.3242-4.8154-3.3242H309.18V302.75h5.0019C316.2939,302.75,317.6924,301.57,317.6924,299.8921Z"/><path class="cls-1" d="M332.915,287.8071v5.9649h7.58a1.2022,1.2022,0,0,1,1.336,1.3047v.6215a1.2254,1.2254,0,0,1-1.336,1.336h-7.58v5.623h8.9161a1.2022,1.2022,0,0,1,1.3046,1.336v.8076a1.179,1.179,0,0,1-1.3046,1.3047h-11.712a1.179,1.179,0,0,1-1.3046-1.3047V285.6636a1.1793,1.1793,0,0,1,1.3046-1.3052h11.712a1.1793,1.1793,0,0,1,1.3046,1.3052v.8076a1.2021,1.2021,0,0,1-1.3046,1.3359Z"/><path class="cls-1" d="M350.4678,304.8008V285.6636a1.1794,1.1794,0,0,1,1.3047-1.3052h1.4912a1.1794,1.1794,0,0,1,1.3047,1.3052v16.9936h8.5742a1.2254,1.2254,0,0,1,1.3359,1.336v.8076a1.2023,1.2023,0,0,1-1.3359,1.3047h-11.37A1.179,1.179,0,0,1,350.4678,304.8008Z"/><path class="cls-1" d="M370.7852,304.8008V285.6636a1.1793,1.1793,0,0,1,1.3046-1.3052h1.4913a1.1793,1.1793,0,0,1,1.3046,1.3052v16.9936H383.46a1.2254,1.2254,0,0,1,1.3359,1.336v.8076a1.2023,1.2023,0,0,1-1.3359,1.3047H372.09A1.179,1.179,0,0,1,370.7852,304.8008Z"/><path class="cls-1" d="M395.2041,287.8071v5.9649h7.58a1.2022,1.2022,0,0,1,1.3359,1.3047v.6215a1.2254,1.2254,0,0,1-1.3359,1.336h-7.58v5.623h8.916a1.2022,1.2022,0,0,1,1.3047,1.336v.8076a1.179,1.179,0,0,1-1.3047,1.3047H392.4082a1.179,1.179,0,0,1-1.3047-1.3047V285.6636a1.1794,1.1794,0,0,1,1.3047-1.3052H404.12a1.1794,1.1794,0,0,1,1.3047,1.3052v.8076a1.2022,1.2022,0,0,1-1.3047,1.3359Z"/><path class="cls-1" d="M410.8926,304.8008v-.59a2.2238,2.2238,0,0,1,.59-1.6157l11.7744-14.7876H413.0674a1.2022,1.2022,0,0,1-1.3047-1.3359v-.8076a1.1794,1.1794,0,0,1,1.3047-1.3052h14.3838a1.1794,1.1794,0,0,1,1.3047,1.3052v.59a2.2844,2.2844,0,0,1-.5586,1.6152l-11.93,14.7881h11.93a1.2027,1.2027,0,0,1,1.3047,1.336v.8076a1.18,1.18,0,0,1-1.3047,1.3047h-16A1.179,1.179,0,0,1,410.8926,304.8008Z"/><path class="cls-1" d="M434.38,304.583l7.3623-19.168a1.5028,1.5028,0,0,1,1.5224-1.0566h2.02a1.5013,1.5013,0,0,1,1.5224,1.0566l7.4561,19.168c.3418.9014-.0625,1.5225-1.0254,1.5225h-1.4912a1.5139,1.5139,0,0,1-1.5527-1.0562l-1.212-3.2h-9.3828l-1.2109,3.2a1.4429,1.4429,0,0,1-1.4912,1.0562h-1.4912C434.4424,306.1055,434.0381,305.4844,434.38,304.583Zm13.6387-5.9956L444.29,288.4907l-3.7275,10.0967Z"/></svg>