<svg id="Capa_1" data-name="Capa 1" xmlns="http://www.w3.org/2000/svg" viewBox="0 0 500 500"><defs><style>.cls-1{fill:#f7cbc9;}</style></defs><path class="cls-1" d="M406.949,163.4778q-10.6216,18.4614-21.2465,36.9208-27.5677,47.73-55.16,95.4452c-.2911.5038-.54,1.0321-.9688,1.8579H406.33a27.316,27.316,0,0,1-2.5837,15.4566c-6.0078,11.96-15.0861,20.0526-28.698,22.2078a41.5618,41.5618,0,0,1-6.3515.55q-51.8371.1515-103.6745.2249c-.58.0011-1.1594-.0492-2.07-.0906l77.548-134.1026c-.9173-.0543-1.4855-.1173-2.0536-.1174q-80.0647-.0078-160.13.0181c-23.1215.0328-43.5072,18.6588-46.4795,41.5643a48.5269,48.5269,0,0,0,41.8229,54.4354c10.0872,1.3812,19.4324-.9653,28.3784-5.4911,14.2077-7.1876,33.7136-3.7644,44.34,7.7436,2.1039,2.2784,2.1025,2.3774.1781,4.7063-13.7333,16.62-31.3576,26.5915-52.48,30.3857-43.9554,7.8957-87.29-20.1609-98.2573-63.6-1.2-4.7544-1.8588-9.6455-2.7686-14.4733V243.4159c.4564-2.8289.881-5.6633,1.3743-8.4857A85.6088,85.6088,0,0,1,165.18,164.753c3.0561-.4931,6.1337-.8535,9.2013-1.2752Z"/><path class="cls-1" d="M263.9379,276.87a22.2036,22.2036,0,1,1,.3643-44.4032,22.2039,22.2039,0,0,1-.3643,44.4032Z"/></svg>