<?xml version="1.0" encoding="utf-8"?>
<!-- Generator: Adobe Illustrator 26.1.0, SVG Export Plug-In . SVG Version: 6.00 Build 0)  -->
<svg version="1.1" id="Capa_1" xmlns="http://www.w3.org/2000/svg" xmlns:xlink="http://www.w3.org/1999/xlink" x="0px" y="0px"
	 viewBox="0 0 500 500" style="enable-background:new 0 0 500 500;" xml:space="preserve">
<style type="text/css">
	.st0{fill:#FFFFFF;}
</style>
<path class="st0" d="M403.1,135.1c-7.1,12.3-14.2,24.6-21.2,36.9c-18.4,31.8-36.8,63.6-55.2,95.4c-0.3,0.5-0.5,1-1,1.9h76.8
	c0.7,5.3-0.2,10.7-2.6,15.5c-6,12-15.1,20.1-28.7,22.2c-2.1,0.3-4.2,0.5-6.4,0.5c-34.6,0.1-69.1,0.2-103.7,0.2c-0.6,0-1.2,0-2.1-0.1
	l77.5-134.1c-0.9-0.1-1.5-0.1-2.1-0.1c-53.4,0-106.8,0-160.1,0c-23.1,0-43.5,18.7-46.5,41.6c-3.5,26.6,15.2,50.9,41.8,54.4
	c0,0,0,0,0,0c10.1,1.4,19.4-1,28.4-5.5c14.2-7.2,33.7-3.8,44.3,7.7c2.1,2.3,2.1,2.4,0.2,4.7c-13.7,16.6-31.4,26.6-52.5,30.4
	c-44,7.9-87.3-20.2-98.3-63.6c-1.2-4.8-1.9-9.6-2.8-14.5V215c0.5-2.8,0.9-5.7,1.4-8.5c6.1-36.1,34.6-64.3,70.8-70.2
	c3.1-0.5,6.1-0.9,9.2-1.3L403.1,135.1z"/>
<path class="st0" d="M260.1,248.5c-12.3,0-22.2-9.9-22.3-22.2c0-12.3,9.9-22.2,22.2-22.3c0.2,0,0.3,0,0.5,0
	c12.3,0.2,22,10.4,21.8,22.6C281.9,238.7,272.1,248.4,260.1,248.5L260.1,248.5z"/>
<path class="st0" d="M52.3,343.5v7h8.9c0.8-0.1,1.5,0.5,1.6,1.2c0,0.1,0,0.2,0,0.3v0.7c0.1,0.8-0.5,1.5-1.3,1.6c-0.1,0-0.2,0-0.3,0
	h-8.9v6.6h10.5c0.8-0.1,1.5,0.5,1.5,1.3c0,0.1,0,0.2,0,0.3v0.9c0.1,0.8-0.5,1.4-1.2,1.5c-0.1,0-0.2,0-0.3,0H49.1
	c-0.8,0.1-1.4-0.5-1.5-1.2c0-0.1,0-0.2,0-0.3V341c-0.1-0.8,0.5-1.4,1.2-1.5c0.1,0,0.2,0,0.3,0h13.7c0.8-0.1,1.4,0.5,1.5,1.2
	c0,0.1,0,0.2,0,0.3v0.9c0.1,0.8-0.5,1.5-1.2,1.6c-0.1,0-0.2,0-0.3,0H52.3z"/>
<path class="st0" d="M67.6,360c-0.4-0.9,0.1-1.6,1.1-1.9l1.3-0.3c0.9-0.2,1.4,0.1,1.9,1c1.1,1.7,3,2.6,5,2.5c2.9,0,4.7-1.3,4.7-3.3
	c0-1.6-1.3-2.7-3.3-3.4l-3.5-1.2c-3.9-1.3-6.4-3.9-6.4-7c0-4.6,3.9-7.4,8.6-7.4c4,0,6.8,1.9,8.1,4.7c0.4,0.6,0.1,1.4-0.5,1.8
	c-0.2,0.1-0.3,0.1-0.5,0.2l-1.2,0.3c-0.8,0.3-1.7-0.1-2-0.9c0,0,0,0,0,0c-0.8-1.4-2.3-2.2-3.9-2c-2.1,0-3.9,1.1-3.9,3.1
	c0,1,0.4,2.2,2.9,3.1l3.6,1.3c4.6,1.5,6.6,4.3,6.6,7.2c0,4.8-3.9,7.5-9.3,7.5C72.3,365.3,68.9,363.2,67.6,360z"/>
<path class="st0" d="M109.1,341v0.9c0.1,0.8-0.5,1.5-1.2,1.6c-0.1,0-0.2,0-0.3,0h-6.5v19.9c0.1,0.8-0.5,1.4-1.2,1.5
	c-0.1,0-0.2,0-0.3,0h-1.7c-0.8,0.1-1.4-0.5-1.5-1.2c0-0.1,0-0.2,0-0.3v-19.9h-6.4c-0.8,0.1-1.5-0.5-1.5-1.3c0-0.1,0-0.2,0-0.3V341
	c-0.1-0.8,0.5-1.4,1.2-1.5c0.1,0,0.2,0,0.3,0h17.7c0.8-0.1,1.4,0.5,1.5,1.2C109.1,340.8,109.1,340.9,109.1,341z"/>
<path class="st0" d="M107.9,363.2l8.6-22.5c0.2-0.8,1-1.3,1.8-1.2h2.4c0.8,0,1.5,0.5,1.8,1.2l8.7,22.5c0.4,1.1-0.1,1.8-1.2,1.8h-1.7
	c-0.8,0.1-1.6-0.5-1.8-1.2L125,360h-11l-1.4,3.8c-0.2,0.8-0.9,1.3-1.7,1.2h-1.7C108,364.9,107.5,364.2,107.9,363.2z M123.9,356.1
	l-4.4-11.8l-4.4,11.8H123.9z"/>
<path class="st0" d="M132.8,352.2c0-7.1,5.2-13.1,13.9-13.1c2.7-0.1,5.4,0.7,7.6,2.2c0.7,0.4,0.9,1.3,0.5,1.9c0,0.1-0.1,0.2-0.2,0.2
	l-0.6,0.8c-0.5,0.8-1.2,0.9-2.1,0.4c-1.6-0.9-3.4-1.4-5.3-1.4c-4.9,0-9,3.9-9,8.8s3.9,9,8.8,9c0,0,0.1,0,0.1,0
	c1.8,0,3.7-0.5,5.3-1.4c0.9-0.5,1.6-0.4,2.1,0.4l0.6,0.8c0.5,0.8,0.5,1.5-0.2,2c-2.3,1.6-5,2.4-7.8,2.4
	C138,365.3,132.8,359.3,132.8,352.2z"/>
<path class="st0" d="M159.5,363.4V341c-0.1-0.8,0.5-1.4,1.2-1.5c0.1,0,0.2,0,0.3,0h1.7c0.8-0.1,1.4,0.5,1.5,1.2c0,0.1,0,0.2,0,0.3
	v22.4c0.1,0.8-0.5,1.4-1.2,1.5c-0.1,0-0.2,0-0.3,0H161c-0.8,0.1-1.4-0.5-1.5-1.2C159.5,363.6,159.5,363.5,159.5,363.4z"/>
<path class="st0" d="M169,352.2c-0.1-7.4,5.8-13.5,13.1-13.6s13.5,5.8,13.6,13.1s-5.8,13.5-13.1,13.6c-0.1,0-0.1,0-0.2,0
	c-7.3,0.1-13.3-5.6-13.4-12.9C169,352.4,169,352.3,169,352.2z M190.9,352.2c0-5-3.7-8.9-8.5-8.9c-4.9,0.2-8.7,4.4-8.5,9.3
	c0.2,4.6,3.9,8.3,8.5,8.5C187.2,361.1,190.9,357.2,190.9,352.2L190.9,352.2z M180.7,336.2l1.9-3.5c0.2-0.4,0.6-0.6,1-0.6h2.7
	c0.7,0,0.9,0.5,0.5,1l-2.8,3.6c-0.2,0.3-0.6,0.5-1,0.5h-1.8C180.7,337.2,180.4,336.8,180.7,336.2L180.7,336.2z"/>
<path class="st0" d="M200.4,363.4V341c-0.1-0.8,0.5-1.4,1.2-1.5c0.1,0,0.2,0,0.3,0h0.9c0.8,0,1.5,0.3,1.9,0.9l11.7,15.8V341
	c-0.1-0.8,0.5-1.4,1.2-1.5c0.1,0,0.2,0,0.3,0h1.7c0.8-0.1,1.5,0.5,1.6,1.2c0,0.1,0,0.2,0,0.3v22.4c0.1,0.8-0.5,1.5-1.3,1.5
	c-0.1,0-0.2,0-0.3,0h-0.9c-0.8,0-1.5-0.3-1.9-0.9l-11.7-16v15.4c0.1,0.8-0.5,1.4-1.2,1.5c-0.1,0-0.2,0-0.3,0h-1.7
	c-0.8,0.1-1.4-0.5-1.5-1.2C200.4,363.6,200.4,363.5,200.4,363.4z"/>
<path class="st0" d="M236.8,363.4V341c-0.1-0.8,0.5-1.4,1.2-1.5c0.1,0,0.2,0,0.3,0h7.7c7.9,0,13.1,5.7,13.1,12.7
	s-5.1,12.7-13.1,12.7h-7.7c-0.8,0.1-1.4-0.5-1.5-1.2C236.7,363.6,236.7,363.5,236.8,363.4z M245.7,360.9c5.2,0,8.5-3.8,8.5-8.7
	s-3.2-8.7-8.5-8.7h-4.2v17.4L245.7,360.9z"/>
<path class="st0" d="M268.6,343.5v7h8.9c0.8-0.1,1.5,0.5,1.6,1.2c0,0.1,0,0.2,0,0.3v0.7c0.1,0.8-0.5,1.5-1.3,1.6c-0.1,0-0.2,0-0.3,0
	h-8.9v6.6H279c0.8-0.1,1.5,0.5,1.5,1.3c0,0.1,0,0.2,0,0.3v0.9c0.1,0.8-0.5,1.4-1.2,1.5c-0.1,0-0.2,0-0.3,0h-13.7
	c-0.8,0.1-1.4-0.5-1.5-1.2c0-0.1,0-0.2,0-0.3V341c-0.1-0.8,0.5-1.4,1.2-1.5c0.1,0,0.2,0,0.3,0H279c0.8-0.1,1.4,0.5,1.5,1.2
	c0,0.1,0,0.2,0,0.3v0.9c0.1,0.8-0.5,1.5-1.2,1.6c-0.1,0-0.2,0-0.3,0H268.6z"/>
<path class="st0" d="M314.3,357.9c0,4.2-3.5,7-8.8,7h-9.3c-0.8,0.1-1.4-0.5-1.5-1.2c0-0.1,0-0.2,0-0.3V341c-0.1-0.8,0.5-1.4,1.2-1.5
	c0.1,0,0.2,0,0.3,0h8.1c5.1,0,8.7,2.5,8.7,6.8c0,2.7-1.8,5-4.4,5.6C311.8,352,314.3,354.7,314.3,357.9z M299.5,343.3v7.1h3.5
	c3.8,0,5.3-1.9,5.3-3.8c0-2.2-1.9-3.4-4.2-3.4H299.5z M309.5,357.7c0-2-1.7-3.9-5.6-3.9h-4.3v7.2h5.9
	C307.8,361,309.5,359.6,309.5,357.7L309.5,357.7z"/>
<path class="st0" d="M323.7,343.5v7h8.9c0.8-0.1,1.5,0.5,1.6,1.2c0,0.1,0,0.2,0,0.3v0.7c0.1,0.8-0.5,1.5-1.3,1.6c-0.1,0-0.2,0-0.3,0
	h-8.9v6.6h10.5c0.8-0.1,1.5,0.5,1.5,1.3c0,0.1,0,0.2,0,0.3v0.9c0.1,0.8-0.5,1.4-1.2,1.5c-0.1,0-0.2,0-0.3,0h-13.7
	c-0.8,0.1-1.4-0.5-1.5-1.2c0-0.1,0-0.2,0-0.3V341c-0.1-0.8,0.5-1.4,1.2-1.5c0.1,0,0.2,0,0.3,0h13.7c0.8-0.1,1.4,0.5,1.5,1.2
	c0,0.1,0,0.2,0,0.3v0.9c0.1,0.8-0.5,1.5-1.2,1.6c-0.1,0-0.2,0-0.3,0H323.7z"/>
<path class="st0" d="M340.6,363.4V341c-0.1-0.8,0.5-1.4,1.2-1.5c0.1,0,0.2,0,0.3,0h1.7c0.8-0.1,1.4,0.5,1.5,1.2c0,0.1,0,0.2,0,0.3
	v19.9h10.1c0.8-0.1,1.5,0.5,1.6,1.3c0,0.1,0,0.2,0,0.3v0.9c0.1,0.8-0.5,1.5-1.3,1.5c-0.1,0-0.2,0-0.3,0h-13.3
	c-0.8,0.1-1.4-0.5-1.5-1.2C340.6,363.6,340.6,363.5,340.6,363.4z"/>
<path class="st0" d="M360.8,363.4V341c-0.1-0.8,0.5-1.4,1.2-1.5c0.1,0,0.2,0,0.3,0h1.7c0.8-0.1,1.4,0.5,1.5,1.2c0,0.1,0,0.2,0,0.3
	v19.9h10.1c0.8-0.1,1.5,0.5,1.6,1.3c0,0.1,0,0.2,0,0.3v0.9c0.1,0.8-0.5,1.5-1.3,1.5c-0.1,0-0.2,0-0.3,0h-13.3
	c-0.8,0.1-1.4-0.5-1.5-1.2C360.8,363.6,360.8,363.5,360.8,363.4z"/>
<path class="st0" d="M385.8,343.5v7h8.9c0.8-0.1,1.5,0.5,1.6,1.2c0,0.1,0,0.2,0,0.3v0.7c0.1,0.8-0.5,1.5-1.3,1.6c-0.1,0-0.2,0-0.3,0
	h-8.9v6.6h10.5c0.8-0.1,1.5,0.5,1.5,1.3c0,0.1,0,0.2,0,0.3v0.9c0.1,0.8-0.5,1.4-1.2,1.5c-0.1,0-0.2,0-0.3,0h-13.7
	c-0.8,0.1-1.4-0.5-1.5-1.2c0-0.1,0-0.2,0-0.3V341c-0.1-0.8,0.5-1.4,1.2-1.5c0.1,0,0.2,0,0.3,0h13.7c0.8-0.1,1.4,0.5,1.5,1.2
	c0,0.1,0,0.2,0,0.3v0.9c0.1,0.8-0.5,1.5-1.2,1.6c-0.1,0-0.2,0-0.3,0H385.8z"/>
<path class="st0" d="M400.5,363.4v-0.7c0-0.7,0.2-1.4,0.7-1.9l13.8-17.3h-11.9c-0.8,0.1-1.5-0.5-1.5-1.3c0-0.1,0-0.2,0-0.3V341
	c-0.1-0.8,0.5-1.4,1.2-1.5c0.1,0,0.2,0,0.3,0h16.9c0.8-0.1,1.4,0.5,1.5,1.2c0,0.1,0,0.2,0,0.3v0.7c0,0.7-0.2,1.4-0.7,1.9l-14,17.3
	h14c0.8-0.1,1.5,0.5,1.5,1.3c0,0.1,0,0.2,0,0.3v0.9c0.1,0.8-0.5,1.4-1.2,1.5c-0.1,0-0.2,0-0.3,0h-18.8c-0.8,0.1-1.4-0.5-1.5-1.2
	C400.5,363.6,400.5,363.5,400.5,363.4z"/>
<path class="st0" d="M424.4,363.2l8.6-22.5c0.2-0.8,1-1.3,1.8-1.2h2.4c0.8,0,1.5,0.5,1.8,1.2l8.7,22.5c0.4,1.1-0.1,1.8-1.2,1.8h-1.7
	c-0.8,0.1-1.6-0.5-1.8-1.2l-1.4-3.8h-11l-1.4,3.8c-0.2,0.8-0.9,1.3-1.7,1.2h-1.7C424.5,364.9,424,364.2,424.4,363.2z M440.4,356.1
	l-4.4-11.8l-4.4,11.8H440.4z"/>
</svg>
