<svg id="Capa_1" data-name="Capa 1" xmlns="http://www.w3.org/2000/svg" viewBox="0 0 500 500"><defs><style>.cls-1{fill:#1d1d1b;}</style></defs><path class="cls-1" d="M45.9268,262.0684c0-12.2168,9.0224-22.6172,23.8711-22.6172a22.7343,22.7343,0,0,1,13.1572,3.8213,2.4283,2.4283,0,0,1,.626,3.6963l-1.002,1.4414c-.94,1.4414-2.1309,1.5664-3.6973.6894a18.876,18.876,0,0,0-9.0839-2.3808c-9.711,0-15.4756,7.0166-15.4756,15.35s5.7646,15.35,15.4756,15.35a18.8761,18.8761,0,0,0,9.0839-2.3809c1.5664-.8769,2.7569-.751,3.6973.69l1.002,1.4414c.94,1.44.8769,2.5683-.3135,3.4453a22.6416,22.6416,0,0,1-13.47,4.0722C54.9492,284.6855,45.9268,274.2861,45.9268,262.0684Z"/><path class="cls-1" d="M87.9072,280.9268l14.8487-38.6563a3.0294,3.0294,0,0,1,3.07-2.1309h4.0722a3.03,3.03,0,0,1,3.07,2.1309l15.0361,38.6563c.6894,1.8173-.125,3.07-2.0674,3.07h-3.0068a3.0543,3.0543,0,0,1-3.1328-2.1309l-2.4434-6.4531H98.4326l-2.4433,6.4531a2.9076,2.9076,0,0,1-3.0069,2.1309H89.9746C88.0332,283.9971,87.2188,282.7441,87.9072,280.9268Zm27.5049-12.0918-7.5185-20.3623L100.375,268.835Z"/><path class="cls-1" d="M150.5635,267.958h-7.2676v13.4072a2.3786,2.3786,0,0,1-2.6318,2.6319h-3.0069a2.379,2.379,0,0,1-2.6318-2.6319V242.7715a2.379,2.379,0,0,1,2.6318-2.6319h16.54c8.96,0,13.9716,6.5166,13.9716,14.2227,0,6.5156-3.6337,11.7158-9.9619,13.1572.4385,4.6358,3.1328,10.4,7.3936,10.4a6.12,6.12,0,0,0,3.0068-.6269c1.5664-.627,2.4434-.376,3.1953,1.1279l.4385.877c.69,1.5039.5645,2.7568-.8144,3.5712a13.0408,13.0408,0,0,1-6.8916,1.8164C153.8838,284.6855,151.002,273.0322,150.5635,267.958Zm2.3183-6.2656c4.1973,0,6.8291-3.07,6.8291-7.2676,0-4.2607-2.6943-7.33-6.8291-7.33h-9.5859v14.5977Z"/><path class="cls-1" d="M190.6016,281.3652v-1.19a4.4819,4.4819,0,0,1,1.19-3.2578l23.7451-29.8223h-20.55a2.4247,2.4247,0,0,1-2.6309-2.6943v-1.6289a2.3783,2.3783,0,0,1,2.6309-2.6319h29.0088a2.3783,2.3783,0,0,1,2.6309,2.6319v1.19a4.604,4.604,0,0,1-1.128,3.2578L201.44,277.042H225.499a2.4255,2.4255,0,0,1,2.6319,2.6943v1.6289a2.3791,2.3791,0,0,1-2.6319,2.6319H193.2334A2.379,2.379,0,0,1,190.6016,281.3652Z"/><path class="cls-1" d="M235.4639,281.3652V242.7715a2.3783,2.3783,0,0,1,2.6308-2.6319h3.0078a2.3783,2.3783,0,0,1,2.6309,2.6319v38.5937a2.3783,2.3783,0,0,1-2.6309,2.6319h-3.0078A2.3783,2.3783,0,0,1,235.4639,281.3652Z"/><path class="cls-1" d="M254.6992,281.3652V242.7715A2.3783,2.3783,0,0,1,257.33,240.14h1.6289a3.7449,3.7449,0,0,1,3.2578,1.629l20.0488,27.2539v-26.251a2.3791,2.3791,0,0,1,2.6319-2.6319h3.0068a2.425,2.425,0,0,1,2.6943,2.6319v38.5937a2.425,2.425,0,0,1-2.6943,2.6319h-1.5664a3.8213,3.8213,0,0,1-3.2578-1.6289l-20.1113-27.4424v26.4394a2.3783,2.3783,0,0,1-2.6309,2.6319H257.33A2.3783,2.3783,0,0,1,254.6992,281.3652Z"/><path class="cls-1" d="M298.56,262.1309c0-12.53,10.0244-22.68,23.2441-22.68a25.592,25.592,0,0,1,13.7207,3.5078c1.4414.94,1.63,2.1933.752,3.6972l-1.128,1.503c-.8769,1.4414-2.0673,1.6289-3.6338.8779a18.0868,18.0868,0,0,0-9.7109-2.3183c-8.3955,0-14.8486,6.8291-14.8486,15.4121,0,7.832,5.3252,15.2871,15.4756,15.2871a17.5381,17.5381,0,0,0,8.8339-2.3174v-7.707h-8.7714a2.4248,2.4248,0,0,1-2.6319-2.6934v-1.0654a2.3791,2.3791,0,0,1,2.6319-2.6319h13.8457a2.3786,2.3786,0,0,1,2.6318,2.6319V276.291a4.1347,4.1347,0,0,1-1.9424,3.57,24.584,24.584,0,0,1-14.8486,4.8242C308.2705,284.6855,298.56,274.4736,298.56,262.1309Z"/><path class="cls-1" d="M342.7334,280.9268l14.8486-38.6563a3.03,3.03,0,0,1,3.07-2.1309h4.0723a3.0294,3.0294,0,0,1,3.07,2.1309l15.0362,38.6563c.6894,1.8173-.125,3.07-2.0674,3.07h-3.0069a3.0544,3.0544,0,0,1-3.1328-2.1309l-2.4433-6.4531H353.2588l-2.4434,6.4531a2.9074,2.9074,0,0,1-3.0068,2.1309h-3.0078C342.8594,283.9971,342.0449,282.7441,342.7334,280.9268Zm27.5049-12.0918L362.72,248.4727l-7.5185,20.3623Z"/><path class="cls-1" d="M389.9141,281.3652V242.7715a2.3783,2.3783,0,0,1,2.6308-2.6319h3.0078a2.3783,2.3783,0,0,1,2.6309,2.6319v34.27h17.292a2.4712,2.4712,0,0,1,2.6943,2.6943v1.6289a2.425,2.425,0,0,1-2.6943,2.6319H392.5449A2.3783,2.3783,0,0,1,389.9141,281.3652Z"/><path class="cls-1" d="M432.8945,247.0947V259.124h15.2871a2.4243,2.4243,0,0,1,2.6944,2.6309v1.2529a2.4708,2.4708,0,0,1-2.6944,2.6943H432.8945v11.34H450.876a2.4254,2.4254,0,0,1,2.6318,2.6943v1.6289a2.379,2.379,0,0,1-2.6318,2.6319h-23.62a2.3783,2.3783,0,0,1-2.6309-2.6319V242.7715a2.3783,2.3783,0,0,1,2.6309-2.6319h23.62a2.379,2.379,0,0,1,2.6318,2.6319V244.4a2.4254,2.4254,0,0,1-2.6318,2.6943Z"/><path class="cls-1" d="M51.7324,304.8594v5.9648h7.58a1.2022,1.2022,0,0,1,1.3359,1.3047v.6211a1.2253,1.2253,0,0,1-1.3359,1.3359h-7.58v5.6231h8.916a1.2022,1.2022,0,0,1,1.3047,1.3359v.8076a1.179,1.179,0,0,1-1.3047,1.3047H48.9365a1.179,1.179,0,0,1-1.3047-1.3047V302.7158a1.18,1.18,0,0,1,1.3047-1.3056H60.6484a1.18,1.18,0,0,1,1.3047,1.3056v.8076a1.2022,1.2022,0,0,1-1.3047,1.336Z"/><path class="cls-1" d="M67.8555,318.9326c-.3418-.8076.0937-1.3984.9326-1.5849l1.0869-.2793c.8076-.1866,1.2119.124,1.6465.87a4.728,4.728,0,0,0,4.2256,2.1435c2.4853,0,4.0068-1.1494,4.0068-2.7959,0-1.3672-1.0869-2.2988-2.7959-2.9209L73.9453,313.31c-3.3555-1.0879-5.4375-3.293-5.4375-5.9649,0-3.8838,3.3555-6.2754,7.3633-6.2754,3.3867,0,5.81,1.584,6.8965,4.0381a1.1032,1.1032,0,0,1-.8389,1.6465l-.9941.28a1.2976,1.2976,0,0,1-1.6768-.7774,3.4632,3.4632,0,0,0-3.3555-1.7392c-1.7714,0-3.3242.9316-3.3242,2.6094,0,.8388.3418,1.8642,2.5166,2.6718l3.044,1.1182c3.9453,1.2734,5.5918,3.6348,5.623,6.1514,0,4.0693-3.3545,6.4306-7.9531,6.4306C71.832,323.499,69.0049,321.666,67.8555,318.9326Z"/><path class="cls-1" d="M106.3486,302.7158v.8076a1.203,1.203,0,0,1-1.3056,1.336H99.5137v16.9931a1.179,1.179,0,0,1-1.3047,1.3047H96.748a1.1794,1.1794,0,0,1-1.3046-1.3047V304.8594H89.9453a1.203,1.203,0,0,1-1.3057-1.336v-.8076a1.18,1.18,0,0,1,1.3057-1.3056H105.043A1.18,1.18,0,0,1,106.3486,302.7158Z"/><path class="cls-1" d="M108.4609,321.6348l7.3633-19.168a1.501,1.501,0,0,1,1.5215-1.0566h2.02a1.5014,1.5014,0,0,1,1.5225,1.0566l7.4561,19.168c.3417.9013-.0626,1.5224-1.0254,1.5224h-1.4913a1.5161,1.5161,0,0,1-1.5537-1.0556l-1.2109-3.2H113.68l-1.2109,3.2a1.4431,1.4431,0,0,1-1.4913,1.0556h-1.4912C108.5234,323.1572,108.1191,322.5361,108.4609,321.6348ZM122.1,315.64l-3.7285-10.0966L114.6436,315.64Z"/><path class="cls-1" d="M132.7559,312.2842c0-6.0586,4.4746-11.2149,11.8369-11.2149a11.277,11.277,0,0,1,6.5244,1.8946,1.2042,1.2042,0,0,1,.31,1.833l-.497.7148c-.4659.7139-1.0567.7764-1.833.3418a9.3576,9.3576,0,0,0-4.5049-1.1806,7.6116,7.6116,0,1,0,0,15.2226,9.3577,9.3577,0,0,0,4.5049-1.1807c.7763-.4345,1.3671-.373,1.833.3418l.497.7149c.4659.7139.4346,1.2734-.1552,1.708a11.227,11.227,0,0,1-6.68,2.02C137.2305,323.499,132.7559,318.3418,132.7559,312.2842Z"/><path class="cls-1" d="M158.667,321.8525V302.7158a1.18,1.18,0,0,1,1.3047-1.3056h1.4912a1.18,1.18,0,0,1,1.3047,1.3056v19.1367a1.179,1.179,0,0,1-1.3047,1.3047h-1.4912A1.179,1.179,0,0,1,158.667,321.8525Z"/><path class="cls-1" d="M169.8516,312.2842a11.4188,11.4188,0,1,1,11.4316,11.2148A11.2,11.2,0,0,1,169.8516,312.2842Zm18.6709,0a7.2628,7.2628,0,1,0-7.2393,7.6113A7.3154,7.3154,0,0,0,188.5225,312.2842Zm-8.668-13.6387,1.6465-3.0137a.8813.8813,0,0,1,.87-.5273h2.33c.59,0,.8076.4033.4345.8691l-2.36,3.1075a1.09,1.09,0,0,1-.87.4345h-1.5225C179.8232,299.5156,179.6064,299.1426,179.8545,298.6455Z"/><path class="cls-1" d="M199.7383,321.8525V302.7158a1.18,1.18,0,0,1,1.3047-1.3056h.8076a1.855,1.855,0,0,1,1.6152.8086l9.9414,13.5136V302.7158a1.18,1.18,0,0,1,1.3047-1.3056h1.4912a1.203,1.203,0,0,1,1.336,1.3056v19.1367a1.2022,1.2022,0,0,1-1.336,1.3047h-.7763a1.8912,1.8912,0,0,1-1.6153-.8076l-9.9726-13.6074v13.11a1.179,1.179,0,0,1-1.3047,1.3047H201.043A1.179,1.179,0,0,1,199.7383,321.8525Z"/><path class="cls-1" d="M241.6748,321.8525V302.7158A1.18,1.18,0,0,1,242.98,301.41h6.5859c6.7725,0,11.1534,4.8779,11.1534,10.874s-4.3809,10.873-11.1534,10.873H242.98A1.179,1.179,0,0,1,241.6748,321.8525Zm7.6426-2.1435c4.4736,0,7.2383-3.2305,7.2383-7.4248s-2.7647-7.4561-7.2383-7.4248h-3.542v14.85Z"/><path class="cls-1" d="M271.9033,304.8594v5.9648h7.58a1.2022,1.2022,0,0,1,1.3359,1.3047v.6211a1.2253,1.2253,0,0,1-1.3359,1.3359h-7.58v5.6231h8.916a1.2022,1.2022,0,0,1,1.3047,1.3359v.8076a1.179,1.179,0,0,1-1.3047,1.3047H269.1074a1.179,1.179,0,0,1-1.3047-1.3047V302.7158a1.18,1.18,0,0,1,1.3047-1.3056h11.7119a1.18,1.18,0,0,1,1.3047,1.3056v.8076a1.2022,1.2022,0,0,1-1.3047,1.336Z"/><path class="cls-1" d="M321.793,317.1924c0,3.6035-3.0137,5.9648-7.5186,5.9648h-7.8906a1.179,1.179,0,0,1-1.3047-1.3047V302.7158a1.18,1.18,0,0,1,1.3047-1.3056h6.9277c4.3184,0,7.4561,2.1748,7.4561,5.7793a4.8143,4.8143,0,0,1-3.79,4.7529A5.2043,5.2043,0,0,1,321.793,317.1924ZM309.18,304.7041v6.0889h2.9824c3.2305,0,4.5049-1.585,4.5049-3.2,0-1.8643-1.585-2.8887-3.542-2.8887Zm8.5127,12.24c0-1.6777-1.43-3.3242-4.8154-3.3242H309.18v6.1817h5.0019C316.2939,319.8018,317.6924,318.6221,317.6924,316.9443Z"/><path class="cls-1" d="M332.915,304.8594v5.9648h7.58a1.2022,1.2022,0,0,1,1.336,1.3047v.6211a1.2254,1.2254,0,0,1-1.336,1.3359h-7.58v5.6231h8.9161a1.2022,1.2022,0,0,1,1.3046,1.3359v.8076a1.179,1.179,0,0,1-1.3046,1.3047h-11.712a1.179,1.179,0,0,1-1.3046-1.3047V302.7158a1.18,1.18,0,0,1,1.3046-1.3056h11.712a1.18,1.18,0,0,1,1.3046,1.3056v.8076a1.2022,1.2022,0,0,1-1.3046,1.336Z"/><path class="cls-1" d="M350.4678,321.8525V302.7158a1.18,1.18,0,0,1,1.3047-1.3056h1.4912a1.18,1.18,0,0,1,1.3047,1.3056V319.709h8.5742a1.2254,1.2254,0,0,1,1.3359,1.3359v.8076a1.2022,1.2022,0,0,1-1.3359,1.3047h-11.37A1.179,1.179,0,0,1,350.4678,321.8525Z"/><path class="cls-1" d="M370.7852,321.8525V302.7158A1.18,1.18,0,0,1,372.09,301.41h1.4913a1.18,1.18,0,0,1,1.3046,1.3056V319.709H383.46a1.2254,1.2254,0,0,1,1.3359,1.3359v.8076a1.2022,1.2022,0,0,1-1.3359,1.3047H372.09A1.179,1.179,0,0,1,370.7852,321.8525Z"/><path class="cls-1" d="M395.2041,304.8594v5.9648h7.58a1.2022,1.2022,0,0,1,1.3359,1.3047v.6211a1.2253,1.2253,0,0,1-1.3359,1.3359h-7.58v5.6231h8.916a1.2022,1.2022,0,0,1,1.3047,1.3359v.8076a1.179,1.179,0,0,1-1.3047,1.3047H392.4082a1.179,1.179,0,0,1-1.3047-1.3047V302.7158a1.18,1.18,0,0,1,1.3047-1.3056H404.12a1.18,1.18,0,0,1,1.3047,1.3056v.8076a1.2022,1.2022,0,0,1-1.3047,1.336Z"/><path class="cls-1" d="M410.8926,321.8525v-.59a2.225,2.225,0,0,1,.59-1.6162l11.7744-14.7871H413.0674a1.2022,1.2022,0,0,1-1.3047-1.336v-.8076a1.18,1.18,0,0,1,1.3047-1.3056h14.3838a1.18,1.18,0,0,1,1.3047,1.3056v.59a2.2844,2.2844,0,0,1-.5586,1.6152l-11.93,14.7881h11.93a1.2027,1.2027,0,0,1,1.3047,1.3359v.8076a1.1794,1.1794,0,0,1-1.3047,1.3047h-16A1.179,1.179,0,0,1,410.8926,321.8525Z"/><path class="cls-1" d="M434.38,321.6348l7.3623-19.168a1.5028,1.5028,0,0,1,1.5224-1.0566h2.02a1.5013,1.5013,0,0,1,1.5224,1.0566l7.4561,19.168c.3418.9013-.0625,1.5224-1.0254,1.5224h-1.4912a1.514,1.514,0,0,1-1.5527-1.0556l-1.212-3.2h-9.3828l-1.2109,3.2a1.443,1.443,0,0,1-1.4912,1.0556h-1.4912C434.4424,323.1572,434.0381,322.5361,434.38,321.6348Zm13.6387-5.9952L444.29,305.543,440.5625,315.64Z"/></svg>